<svg width="37" height="37" viewBox="0 0 37 37" fill="none" xmlns="http://www.w3.org/2000/svg">
<path d="M0 16C0 7.16344 7.16344 0 16 0H21C29.8366 0 37 7.16344 37 16V21C37 29.8366 29.8366 37 21 37H16C7.16344 37 0 29.8366 0 21V16Z" fill="#262522" fill-opacity="0.08"/>
<path d="M23.6267 22.0129L27 25.3861L25.8861 26.5L22.5129 23.1267C21.3 24.0971 19.7618 24.6776 18.0888 24.6776C14.1758 24.6776 11 21.5018 11 17.5888C11 13.6758 14.1758 10.5 18.0888 10.5C22.0018 10.5 25.1776 13.6758 25.1776 17.5888C25.1776 19.2618 24.5971 20.8 23.6267 22.0129ZM22.0465 21.4284C23.0096 20.4358 23.6023 19.0819 23.6023 17.5888C23.6023 14.5426 21.135 12.0753 18.0888 12.0753C15.0426 12.0753 12.5753 14.5426 12.5753 17.5888C12.5753 20.635 15.0426 23.1023 18.0888 23.1023C19.5819 23.1023 20.9358 22.5096 21.9284 21.5465L22.0465 21.4284Z" fill="#262522"/>
</svg>
